<svg version="1.1" xmlns="http://www.w3.org/2000/svg" viewBox="0 0 799 777.7223719676548" width="799" height="777.7223719676548">
  <!-- svg-source:excalidraw -->

  <defs>
    <style>
      @font-face {
        font-family: "Virgil";
        src: url("https://excalidraw.com/Virgil.woff2");
      }
      @font-face {
        font-family: "Cascadia";
        src: url("https://excalidraw.com/Cascadia.woff2");
      }
    </style>
  </defs>
  <rect x="0" y="0" width="799" height="777.7223719676548" fill="#000000"></rect><g transform="translate(28 110) rotate(0 86 70)" stroke="none" fill="#2b8a3e"><path d="M -4.869646580879368 5.3261535963782425 Q -4.869646580879368 5.3261535963782425 -6.06544256704627 3.680281620446121 -7.261238553213172 2.034409644514 -6.06544256704627 3.680281620446121 -4.869646580879368 5.3261535963782425 -6.06544256704627 3.680281620446121 -7.261238553213172 2.034409644514 -7.261238553213172 -4.440892098500626e-16 -7.261238553213172 -2.034409644514001 -6.06544256704627 -3.680281620446122 -4.869646580879369 -5.3261535963782425 -3.5289456120559053 -4.815432823748321 -2.1882446432324416 -4.304712051118399 2.8080387608952027 -2.0473758797345587 7.804322165022847 0.20996029164928132 12.122154177154824 2.9589760797742493 16.439986189286802 5.707991867899217 22.778196173362645 8.654610851610396 29.11640615743849 11.601229835321577 37.135534831518484 16.6708976793903 45.154663505598485 21.740565523459026 51.20680275991522 27.488837818349076 57.25894201423196 33.237110113239126 62.59293681675872 39.01183033729439 67.92693161928548 44.78655056134966 72.89741003565737 48.9300483529475 77.86788845202928 53.07354614454535 82.96478192981024 57.029592414889464 88.0616754075912 60.98563868523358 93.50530152521551 65.07001092178845 98.94892764283982 69.15438315834331 105.32282148413688 74.13323577907526 111.69671532543393 79.11208839980722 120.30542317390456 86.536555880603 128.9141310223752 93.96102336139877 139.25768960354822 102.8257473775707 149.60124818472127 111.69047139374265 155.3297724967345 116.00702035863728 161.05829680874777 120.3235693235319 169.3467316942975 126.99878574164966 177.63516657984724 133.6740021597674 179.0517116756112 135.64032247910086 180.46825677137514 137.60664279843434 180.45849174215942 140.03005366965715 180.4487267129437 142.45346454088 179.0163814680076 144.40830537989106 177.5840362230715 146.36314621890213 176.03110195277833 145.45837794152504 174.47816768248515 144.55360966414796 170.7992944992791 142.78615319997522 167.12042131607308 141.01869673580248 169.01261556690176 142.92588992378109 170.90480981773044 144.83308311175972 167.18574487301424 141.3646818988697 163.46667992829808 137.89628068597966 162.55092429731872 135.05316151441372 161.63516866633938 132.21004234284777 163.397032738576 129.79803695513448 165.15889681081262 127.38603156742117 168.14584787820127 127.39366834829138 171.1327989455899 127.4013051291616 172.8823064468139 129.8222880912159 174.6318139480379 132.2432710532702 173.70153229663828 135.0816704346937 172.77125064523867 137.92006981611723 169.92813147367272 138.83582544709657 167.08501230210678 139.75158107807593 164.67300691439345 137.9897170058393 162.26100152668016 136.2278529336027 162.26863830755036 133.24090186621405 162.2762750884206 130.2539507988254 164.6972580504749 128.50444329760143 167.1182410125292 126.75493579637742 169.95664039395274 127.68521744777703 172.79503977537624 128.61549909917665 173.69902122882291 130.89120803864478 174.60300268226956 133.1669169781129 175.53968892331326 133.12373594592617 176.47637516435697 133.08055491373946 177.0557708721021 133.37727853675344 177.63516657984724 133.6740021597674 179.0517116756112 135.64032247910086 180.46825677137514 137.60664279843434 180.45849174215942 140.03005366965715 180.4487267129437 142.45346454088 179.0163814680076 144.40830537989106 177.5840362230715 146.36314621890213 170.71861225286443 144.07192797432091 163.85318828265736 141.7807097297397 158.04447968983823 137.19305708430466 152.2357710970191 132.60540443886964 146.1264368735974 127.89612184210816 140.01710265017573 123.18683924534666 129.5887125306049 114.18684839283183 119.16032241103409 105.186857540317 110.86431341189666 98.01957342515973 102.56830441275922 90.85228931000248 96.29032000714018 85.95903978973978 90.01233560152114 81.06579026947708 84.48833836374615 76.92162367946011 78.96434112597115 72.77745708944315 73.71621227062411 68.71246838095266 68.46808341527709 64.64747967246218 62.71654077754893 59.7519958286261 56.964998139820764 54.85651198479002 51.894780354194246 49.38770241224496 46.82456256856773 43.9188928396999 38.40600154990284 36.654864171013955 29.987440531237944 29.39083550232801 22.25524183586803 25.046057888476888 14.523043140498118 20.701280274625763 9.121462050795682 17.313610462676614 3.7198809610932444 13.925940650727469 0.19658134337255406 10.4850348271337 -3.3267182743481363 7.044129003539933 -4.098182427613753 6.185141299959088 -4.869646580879369 5.3261535963782425 -6.06544256704627 3.680281620446122 -7.261238553213172 2.034409644514001 -7.261238553213172 4.440892098500626e-16 -7.261238553213172 -2.034409644514 -6.06544256704627 -3.680281620446121 -4.869646580879368 -5.3261535963782425 -2.434823290439684 -5.3261535963782425 0 -5.3261535963782425 1.5653172676978242 -4.817551185249743 3.1306345353956484 -4.308948774121243 4.098053810010022 -2.977410375026682 5.0654730846243945 -1.6458719759321214 5.0654730846243945 3.3306690738754696e-16 5.0654730846243945 1.645871975932122 4.098053810010022 2.977410375026682 3.130634535395649 4.308948774121242 -0.8695060227418596 4.817551185249743 Z"></path></g><g transform="translate(104 37) rotate(0 78.5 71.5)" stroke="none" fill="#2b8a3e"><path d="M -7.29641661866799 0.015354179077910146 Q -7.29641661866799 0.015354179077910146 -6.987483312560402 -1.9351739502924503 -6.678550006452812 -3.885702079662811 -6.987483312560402 -1.9351739502924503 -7.29641661866799 0.015354179077910146 -6.987483312560402 -1.9351739502924503 -6.678550006452812 -3.885702079662811 -5.282126043057811 -5.282126043057811 -3.8857020796628103 -6.678550006452813 -1.9351739502924505 -6.987483312560402 0.015354179077909258 -7.29641661866799 1.1599335720781911 -7.3695545365153645 2.304512965078473 -7.442692454362739 6.442235292666696 -7.293793035452804 10.57995762025492 -7.14489361654287 13.797140930806435 -5.359044808113713 17.01432424135795 -3.5731959996845557 21.588259427981782 -0.16676324729406478 26.16219461460561 3.239669505096426 31.003202603606095 8.515269915785339 35.84421059260658 13.790870326474252 40.38303193424256 18.803748532206775 44.92185327587854 23.8166267379393 50.45439454178409 29.505363193838 55.98693580768964 35.1940996497367 61.90381029505201 40.58065184981922 67.82068478241438 45.96720404990174 73.14578452413556 51.42817038329711 78.47088426585675 56.88913671669248 83.66868836402776 61.90374526108776 88.86649246219875 66.91835380548304 95.07163426308693 73.53072282682733 101.27677606397513 80.14309184817162 106.32876420467967 85.69912632673875 111.38075234538421 91.25516080530588 115.98233033148244 96.13925615396103 120.58390831758068 101.02335150261618 125.1796707276772 105.44540046094052 129.77543313777372 109.86744941926486 134.67906968617655 114.83964991608582 139.5827062345794 119.81185041290678 145.6749321555521 124.99542263763314 151.76715807652482 130.1789948623595 155.98111744317416 134.22857777357927 160.1950768098235 138.27816068479905 161.27004449655772 140.1970749423213 162.3450121832919 142.11598919984357 159.22366254959468 138.91173329720584 156.10231291589747 135.70747739456812 158.6783791379211 137.0711690123576 161.25444535994473 138.43486063014709 161.66536940030062 141.32049980401098 162.07629344065654 144.2061389778749 159.98329740010018 146.2347196597547 157.89030135954386 148.26330034163448 155.01891290769683 147.76240078355926 152.1475244558498 147.26150122548404 150.86500092520896 144.6440777973714 149.58247739456812 142.02665436925878 150.9461690123576 139.45058814723518 152.30986063014709 136.87452192521155 155.19549980401098 136.46359788485563 158.0811389778749 136.0526738444997 160.10971965975466 138.14566988505607 162.13830034163445 140.2386659256124 161.63740078355926 143.11005437745942 161.13650122548404 145.98144282930645 158.5190777973714 147.2639663599473 155.90165436925878 148.54648989058813 153.76616725577395 147.46097008825572 151.63068014228915 146.3754502859233 151.60641743979187 147.39882513581313 151.58215473729456 148.42219998570295 148.22038163376544 146.10038872705886 144.85860853023635 143.77857746841477 140.33847359812137 139.49728579808763 135.81833866600635 135.2159941277605 128.81159847904357 128.57632991441835 121.80485829208078 121.93666570107618 115.93480297621548 116.46650168045564 110.06474766035019 110.99633765983509 105.34898895127071 106.00064162570509 100.63323024219122 101.00494559157508 95.62566989152157 95.50433157189175 90.61810954085193 90.00371755220844 84.76214789379264 83.74058268552467 78.90618624673334 77.4774478188409 73.44336967626552 72.20980752944013 67.98055310579771 66.94216724003937 63.025930054634415 61.83920821048777 58.07130700347112 56.73624918093617 51.83592274622646 51.03157815241277 45.60053848898179 45.32690712388937 39.88852010003734 39.42735694900926 34.17650171109289 33.52780677412915 29.563505142328864 28.390340610017798 24.95050857356484 23.25287444590645 20.086981273372743 17.73812995907484 15.22345397318065 12.223385472243226 11.272966387609937 8.350493966013907 7.322478802039223 4.4776024597845865 4.3444542062592895 4.640390195763277 1.3664296104793567 4.803177931741967 -2.0555201335518785 3.089126536438379 -5.477469877583114 1.3750751411347908 -6.386943248125553 0.69521466010635 -7.29641661866799 0.015354179077909258 -6.987483312560402 -1.9351739502924505 -6.678550006452813 -3.8857020796628103 -5.282126043057811 -5.282126043057811 -3.885702079662811 -6.678550006452812 -1.9351739502924503 -6.987483312560402 0.015354179077910146 -7.29641661866799 1.8356197889754302 -5.47615100877047 3.6558853988729503 -3.6558853988729503 4.381217168788653 -2.232341647259747 5.106548938704355 -0.8087978956465443 4.856616643934878 0.7692125090204531 4.606684349165401 2.3472229136874505 3.4769536314264258 3.4769536314264258 2.3472229136874505 4.606684349165401 0.7692125090204536 4.856616643934878 -0.8087978956465434 5.106548938704355 -4.052607257157267 2.5609515588911327 Z"></path></g><g transform="translate(23 231) rotate(0 -6.5 -96.5)" stroke="none" fill="#2b8a3e"><path d="M -7.626776353160032 -3.042882903152148 Q -7.626776353160032 -3.042882903152148 -8.961479582313322 -7.719565276754333 -10.296182811466611 -12.396247650356518 -8.961479582313322 -7.719565276754333 -7.626776353160032 -3.042882903152148 -8.961479582313322 -7.719565276754333 -10.296182811466611 -12.396247650356518 -11.36140930049115 -17.849277437869524 -12.42663578951569 -23.30230722538253 -13.636394688851382 -29.930605032447772 -14.846153588187075 -36.55890283951302 -16.238691612303217 -44.970157240692906 -17.63122963641936 -53.381411641872795 -18.56434516615707 -62.18105165936127 -19.497460695894784 -70.98069167684974 -19.855255471149135 -82.89113479655693 -20.213050246403487 -94.80157791626411 -19.6977789067942 -106.12943825677708 -19.182507567184913 -117.45729859729005 -18.310180641294924 -125.99949546842053 -17.437853715404934 -134.54169233955102 -16.9643390103393 -143.0455452927802 -16.490824305273673 -151.54939824600936 -16.431631676955234 -159.12058864619425 -16.372439048636792 -166.69177904637914 -16.241685721012214 -181.5656772701144 -16.110932393387635 -196.43957549384967 -14.222631630171271 -197.8115916804331 -12.33433086695491 -199.18360786701655 -10.000212578641383 -199.18367693800886 -7.666094290327857 -199.18374600900117 -5.77771232929021 -197.81184158163092 -3.889330368252563 -196.4399371542607 -7.74849999323326 -196.96105926230973 -11.607669618213958 -197.4821813703588 -8.870629467330419 -198.37149961348842 -6.133589316446881 -199.26081785661808 -3.8053239087256276 -197.56923400817297 -1.4770585010043744 -195.87765015972786 -1.4770585117253643 -192.99975583833387 -1.4770585224463542 -190.12186151693987 -3.805323942770884 -188.4302776858417 -6.133589363095414 -186.73869385474353 -8.870629507353017 -187.6280121182657 -11.607669651610621 -188.51733038178787 -12.496987894740254 -191.2543705326714 -13.386306137869887 -193.99141068355493 -11.694722289424785 -196.3196760912762 -10.003138440979683 -198.64794149899745 -7.125244119585698 -198.64794148827644 -4.247349798191713 -198.64794147755546 -2.5557659670935315 -196.31967605723094 -0.8641821359953497 -193.9914106369064 -1.75350039951751 -191.2543704926488 -2.6428186630396704 -188.5173303483912 -8.503633515174453 -190.98021700773245 -14.364448367309235 -193.44310366707373 -15.237690380348436 -194.94133958046172 -16.110932393387635 -196.43957549384967 -14.222631630171271 -197.8115916804331 -12.33433086695491 -199.18360786701655 -10.000212578641383 -199.18367693800886 -7.666094290327858 -199.18374600900117 -5.77771232929021 -197.81184158163092 -3.889330368252563 -196.4399371542607 -3.087908428006116 -190.01418873932542 -2.286486487759669 -183.58844032439015 -1.958534814503015 -175.1339046488387 -1.6305831412463607 -166.67936897328724 -1.6670852819276123 -158.81431003166736 -1.7035874226088639 -150.94925109004748 -2.10404214584317 -141.9105581290675 -2.5044968690774767 -132.8718651680875 -3.316213354383417 -124.69112352983196 -4.127929839689358 -116.5103818915764 -4.641436816619609 -105.82017763138185 -5.15494379354986 -95.12997337118729 -4.854550827334577 -83.88428204561347 -4.554157861119296 -72.63859072003964 -3.6132579368005464 -64.19562623954387 -2.672358012481797 -55.7526617590481 -1.4612302917681363 -47.886506518884296 -0.25010257105447553 -40.02035127872049 0.8129872213996547 -33.107773189215905 1.876077013853785 -26.195195099711327 3.1009367777392454 -19.335976586206847 4.3257965416247055 -12.476758072702369 5.37688755573903 -7.717274366763603 6.427978569853355 -2.9577906608248377 6.727678015680024 -1.4576222698305914 7.027377461506694 0.04254612116365508 6.3438186355954205 2.1037777451979696 5.660259809684148 4.165009369232284 3.895687552700709 5.430794985474113 2.131115295717269 6.696580601715941 -0.040463765775777816 6.683433127231636 -2.212042827268825 6.670285652747331 -3.961159301038731 5.383226975923675 -5.710275774808638 4.09616829910002 -6.668526063984335 0.526642697973936 Z"></path></g><g transform="translate(12 40) rotate(0 117 -15)" stroke="none" fill="#2b8a3e"><path d="M 4.845877307967262 -7.671245912293348 Q 4.845877307967262 -7.671245912293348 8.389938112348695 -8.385603862824237 11.933998916730129 -9.099961813355124 8.389938112348695 -8.385603862824237 4.845877307967262 -7.671245912293348 8.389938112348695 -8.385603862824237 11.933998916730129 -9.099961813355124 18.059465200539087 -10.11516127205924 24.18493148434805 -11.130360730763353 36.434948649361985 -12.236520433341799 48.68496581437593 -13.342680135920244 56.79122347433202 -14.308785007810961 64.89748113428811 -15.274889879701679 75.05523095320615 -15.985696807267272 85.21298077212418 -16.696503734832866 98.0501940005683 -17.99625106231123 110.8874072290124 -19.2959983897896 125.47641247718565 -21.825701273643862 140.06541772535888 -24.355404157498125 151.7408743898622 -27.335018854586465 163.41633105436551 -30.31463355167481 172.8514275736598 -32.26774164933812 182.28652409295407 -34.220849747001424 191.87460901487168 -35.27504336332238 201.4626939367893 -36.32923697964333 208.60487484923084 -36.782764041666674 215.74705576167236 -37.236291103690014 224.6527686206067 -36.17991721067775 233.5584814795411 -35.12354331766549 236.1265061207941 -34.04003219890885 238.69453076204707 -32.95652108015221 239.32739886503091 -30.24207364710484 239.96026696801476 -27.527626214057467 238.13622340192222 -25.420112994277297 236.31217983582965 -23.312599774497123 233.53501991746947 -23.54951682834807 230.75785999910926 -23.78643388219902 229.31715627866203 -26.172459802519533 227.8764525582148 -28.558485722840047 228.95996367697143 -31.126510364093043 230.0434747957281 -33.69453500534604 232.75792222877544 -34.32740310832989 235.47236966182282 -34.96027121131373 237.579882881603 -33.136227645221176 239.68739610138317 -31.312184079128624 239.4504790475322 -28.535024160768423 239.21356199368125 -25.757864242408225 236.82753607336076 -24.317160521960993 234.44151015304024 -22.87645680151376 225.62304150038568 -22.72280504710554 216.8045728477311 -22.569153292697315 209.82305495638082 -22.144178840921484 202.84153706503056 -21.71920438914565 194.01289854427336 -20.799301122319633 185.18426002351617 -19.87939785549362 176.1990562116228 -17.99030543175082 167.21385239972946 -16.101213008008013 154.99008786822475 -12.929994335105128 142.76632333672006 -9.758775662202243 127.55517204037955 -7.135142866618072 112.34402074403901 -4.5115100710339 99.2212151236025 -3.2477739144524715 86.098409503166 -1.9840377578710429 76.31495299372469 -1.381901705609787 66.53149648428337 -0.7797656533485313 58.40054912924108 0.0324801836791756 50.26960177419879 0.8447260207068825 38.6837603875729 1.7390464875297094 27.09791900094701 2.633366954352536 20.664929707635785 3.5248751382483614 14.231940414324558 4.416383322144187 10.753090146928649 4.919302898468768 7.274239879532738 5.422222474793348 4.244210582657738 5.984478334168348 1.2141812857827379 6.546734193543348 -0.8257996147053202 6.278415633584045 -2.865780515193378 6.010097073624741 -4.358446039428093 4.593952110446251 -5.8511115636628075 3.177807147267762 -6.226314215221699 1.1547550238073008 -6.60151686678059 -0.8682970996531607 -5.715941985437244 -2.7255192332463443 -4.830367104093898 -4.582741366839528 0.007755101936682163 -6.126993639566438 Z"></path></g><g transform="translate(263 218) rotate(0 263 46)"><text x="0" y="32" font-family="Virgil, Segoe UI Emoji" font-size="36px" fill="#2b8a3e" text-anchor="start" style="white-space: pre;" direction="ltr">Select a Web App Background</text><text x="0" y="78" font-family="Virgil, Segoe UI Emoji" font-size="36px" fill="#2b8a3e" text-anchor="start" style="white-space: pre;" direction="ltr"> with SHARE TOKEN</text></g><g transform="translate(229.6873315363888 551.39584135541) rotate(0 -69.38775510204084 66.32653061224488)" stroke="none" fill="#1864ab"><path d="M -13.138697090743735 25.16547393087103 Q -13.138697090743735 25.16547393087103 -25.2024896662877 37.6504598196609 -37.26628224183167 50.135445708450774 -25.2024896662877 37.6504598196609 -13.138697090743735 25.16547393087103 -25.2024896662877 37.6504598196609 -37.26628224183167 50.135445708450774 -50.16947003126032 61.3893316608195 -63.07265782068897 72.64321761318823 -74.07412205609484 81.64718445861658 -85.07558629150071 90.65115130404493 -93.9030663882987 97.38065519385582 -102.73054648509667 104.1101590836667 -109.50513328713495 108.79980688395408 -116.27972008917322 113.48945468424145 -124.35115704149715 120.97755215486569 -132.42259399382107 128.46564962548993 -131.61999107944828 131.073751820552 -130.8173881650755 133.68185401561402 -132.455629007432 135.86417741980557 -134.09386984978852 138.04650082399712 -136.822340377842 138.00387365436808 -139.55081090589553 137.961246484739 -141.12007953894803 135.7288118372376 -142.68934817200054 133.4963771897362 -141.80566356273388 130.91462003434913 -140.92197895346723 128.33286287896203 -138.31387675840517 127.53025996458925 -135.70577456334314 126.72765705021645 -133.5234511591516 128.36589789257297 -131.34112775496004 130.00413873492948 -131.38375492458908 132.73260926298298 -131.42638209421816 135.4610797910365 -133.65881674171956 137.030348424089 -135.89125138922097 138.5996170571415 -138.47300854460804 137.71593244787485 -141.05476569999513 136.8322478386082 -143.01258169615951 128.37484611582636 -144.9703976923239 119.91744439304452 -141.23435279033117 115.4585871603619 -137.49830788833847 110.99972992767928 -130.92013110668876 106.3189712305618 -124.34195432503903 101.63821253344432 -117.84214231761862 97.13509197655098 -111.34233031019822 92.63197141965765 -102.75114374449754 86.02430044990541 -94.15995717879684 79.41662948015318 -83.22389787143243 70.55569102782532 -72.28783856406801 61.69475257549746 -59.76094818762488 51.023270900041126 -47.23405781118174 40.351789224584785 -35.34427634236185 28.184675503999667 -23.454494873541968 16.01756178341455 -14.306196882470543 5.721802854843155 -5.157898891399117 -4.57395607372824 -3.32111141251883 -5.653050585039497 -1.4843239336385432 -6.732145096350754 0.6359441914092334 -6.525514302856984 2.75621231645701 -6.318883509363214 4.3500907291670385 -4.9054533510566785 5.9439691418770675 -3.4920231927501417 6.4026504625288485 -1.4116759493797917 6.8613317831806295 0.6686712939905584 -3.1386826537815526 12.917072612430795 Z"></path></g><g transform="translate(333.76896418945 620.7835964574507) rotate(0 -81.63265306122449 68.36734693877554)" stroke="none" fill="#1864ab"><path d="M -5.665031285378824 -8.196522312022857 Q -5.665031285378824 -8.196522312022857 -3.9144403445310143 -9.468401079689707 -2.1638494036832054 -10.740279847356557 -3.9144403445310143 -9.468401079689707 -5.665031285378824 -8.196522312022857 -3.9144403445310143 -9.468401079689707 -2.1638494036832054 -10.740279847356557 4.440892098500626e-16 -10.740279847356557 2.1638494036832063 -10.740279847356557 3.9144403445310143 -9.468401079689707 5.665031285378823 -8.196522312022857 5.133317808526088 -6.612720859124793 4.601604331673353 -5.028919406226729 1.6086000196474628 1.1285839029172005 -1.3844042923784272 7.28608721206113 -7.586198059901889 13.306743454886883 -13.787991827425351 19.327399697712636 -22.3090108765471 26.7940188713796 -30.830029925668843 34.26063804504656 -40.17282658720485 42.017679752342204 -49.515623248740866 49.774721459637846 -56.64066447592225 55.83685375894497 -63.76570570310364 61.898986058252085 -71.27379004162621 68.65278705544944 -78.78187438014879 75.4065880526468 -89.87345335931494 86.14719178128928 -100.96503233848107 96.88779550993176 -110.59134831376218 105.57867609430173 -120.2176642890433 114.26955667867168 -126.41700208875528 119.66459215946067 -132.61633988846728 125.05962764024966 -137.62980183008258 129.72998187237 -142.6432637716979 134.40033610449035 -152.38994925808382 141.37974965366095 -162.13663474446975 148.35916320283152 -164.46119734872514 147.97059458886224 -166.78575995298053 147.58202597489299 -168.43797570351677 145.90132374589922 -170.09019145405298 144.22062151690548 -170.43897009091313 141.88975679939514 -170.78774872777328 139.5588920818848 -169.87658920565173 138.53963252429935 -168.96542968353015 137.52037296671392 -166.47209905473247 134.69716732559255 -163.9787684259348 131.8739616844712 -161.0234781444879 130.938597066891 -158.06818786304103 130.0032324493108 -155.57438594780388 131.8443189825826 -153.08058403256675 133.6854055158544 -153.10423433818337 136.7850971583375 -153.1278846438 139.8847888008206 -155.64948916074448 141.6876083357604 -158.17109367768896 143.49042787070016 -161.11176726642043 142.51007769858182 -164.0524408551519 141.5297275264635 -164.9878054727321 138.5744372450166 -165.9231700903123 135.61914696356973 -164.0820835570405 133.12534504833258 -162.2409970237687 130.63154313309545 -159.1413053812856 130.65519343871205 -156.0416137388025 130.67884374432867 -154.2387942038627 133.20044826127315 -152.43597466892294 135.72205277821766 -153.41632484104127 138.66272636694913 -154.3966750131596 141.6033999556806 -158.37859299751813 144.7126337160479 -162.36051098187662 147.8218674764152 -162.2485728631732 148.09051533962338 -162.13663474446975 148.35916320283152 -164.46119734872514 147.97059458886224 -166.78575995298053 147.58202597489299 -168.43797570351677 145.90132374589922 -170.09019145405298 144.22062151690548 -170.43897009091313 141.88975679939514 -170.78774872777328 139.5588920818848 -161.3962044661825 131.0911725757922 -152.00466020459174 122.62345306969956 -147.14430412088072 118.05959577539282 -142.2839480371697 113.49573848108608 -136.2419314497651 108.24129202681783 -130.19991486236052 102.98684557254958 -120.8371169640047 94.5401113560994 -111.47431906564887 86.09337713964922 -100.11975298919404 75.02663361580417 -88.76518691273921 63.959890091959124 -81.1485591200922 57.18632407281104 -73.53193132744519 50.412758053662955 -66.24682473119995 44.29482987828909 -58.96171813495472 38.17690170291524 -49.62648266861648 30.695787316344806 -40.29124720227824 23.214672929774373 -31.98963863887736 16.153587810300223 -23.688030075476473 9.092502690826077 -16.443939929250092 2.1837992945056164 -9.199849783023712 -4.724904101814844 -7.432440534201268 -6.46071320691885 -5.665031285378823 -8.196522312022857 -3.9144403445310143 -9.468401079689707 -2.1638494036832063 -10.740279847356557 -4.440892098500626e-16 -10.740279847356557 2.1638494036832054 -10.740279847356557 3.9144403445310143 -9.468401079689707 5.665031285378824 -8.196522312022857 5.665031285378824 -4.098261156011429 5.665031285378824 0 5.124068934458022 1.6649109216605726 4.583106583537221 3.3298218433211453 3.166848762192515 4.358793381148292 1.7505909408478093 5.3877649189754395 -3.3306690738754696e-16 5.3877649189754395 -1.75059094084781 5.3877649189754395 -3.166848762192515 4.358793381148293 -4.58310658353722 3.3298218433211457 -5.1240689344580215 -2.433350234350856 Z"></path></g><g transform="translate(105.19753561802145 553.4366576819406) rotate(0 -29.591836734693885 101.0204081632653)" stroke="none" fill="#1864ab"><path d="M -5.621505583051481 -6.124580957863606 Q -5.621505583051481 -6.124580957863606 -3.8843648239149258 -7.38668759650783 -2.1472240647783707 -8.648794235152055 -3.8843648239149258 -7.38668759650783 -5.621505583051481 -6.124580957863606 -3.8843648239149258 -7.38668759650783 -2.1472240647783707 -8.648794235152055 4.440892098500626e-16 -8.648794235152055 2.1472240647783716 -8.648794235152055 3.8843648239149258 -7.386687596507831 5.62150558305148 -6.124580957863607 5.316856633389143 -4.769483063938156 5.012207683726807 -3.4143851700127055 2.709267012213574 4.770690906032628 0.4063263407003408 12.95576698207796 -5.692688252456007 31.103142686925683 -11.791702845612354 49.250518391773404 -19.380334086799547 73.34202752360245 -26.96896532798674 97.4335366554315 -32.99596652391909 121.07371701814256 -39.02296771985143 144.7138973808536 -41.50191982711259 157.1416667374316 -43.98087193437375 169.56943609400957 -45.824148811741324 177.60356526837842 -47.667425689108896 185.63769444274726 -49.31939930295892 193.06164251615058 -50.971372916808946 200.48559058955388 -57.22822931727681 205.5697709037309 -63.48508571774469 210.6539512179079 -65.00589336067108 208.76219729881322 -66.52670100359748 206.87044337971855 -66.64511517728991 204.44607400590974 -66.76352935098232 202.02170463210092 -65.43431986584 199.99074650308864 -64.10511038069768 197.95978837407634 -64.21532755147908 198.7245401217554 -64.32554472226049 199.48929186943448 -61.07162549304914 196.6874260841702 -57.817706263837785 193.88556029890592 -56.47012286349274 191.24080390163505 -55.122539463147696 188.59604750436415 -52.19079694281674 188.1317165703589 -49.25905442248578 187.66738563635363 -47.16016778889222 189.76628828324152 -45.06128115529865 191.86519093012942 -45.525634456709426 194.79692990781137 -45.9899877581202 197.7286688854933 -48.634754436558914 199.07623210791036 -51.27952111499763 200.42379533032738 -53.9242775122685 199.07621192998235 -56.56903390953938 197.72862852963732 -57.03336484354465 194.79688600930635 -57.49769577754993 191.86514348897538 -55.39879313066204 189.7662568553818 -53.29989048377415 187.66737022178827 -50.36815150609219 188.13172352319904 -47.43641252841022 188.5960768246098 -46.088849305993186 191.24084350304852 -44.74128608357615 193.88561018148724 -52.34003306483126 201.44871966628574 -59.938780046086364 209.01182915108427 -61.71193288191553 209.83289018449608 -63.48508571774469 210.6539512179079 -65.00589336067108 208.76219729881322 -66.52670100359748 206.87044337971855 -66.64511517728991 204.44607400590974 -66.76352935098232 202.02170463210092 -65.43431986584 199.99074650308864 -64.10511038069767 197.95978837407634 -63.512193249378115 196.6498494065675 -62.91927611805857 195.33991043905866 -62.783403846608024 188.6715823686198 -62.64753157515749 182.00325429818093 -60.84053370548844 174.29869738321793 -59.03353583581939 166.59414046825495 -56.46633270416541 153.88885725045625 -53.899129572511434 141.18357403265756 -47.686481192159135 117.02267534954714 -41.473832811806844 92.86177666643674 -33.58203402791888 68.39851257997657 -25.690235244030912 43.9352484935164 -19.597437678663315 28.008051014076468 -13.504640113295718 12.080853534636539 -10.208820350844864 4.415872599319397 -6.913000588394011 -3.2491083359977453 -6.2672530857227455 -4.686844646930676 -5.62150558305148 -6.124580957863607 -3.8843648239149258 -7.386687596507831 -2.1472240647783716 -8.648794235152055 -4.440892098500626e-16 -8.648794235152055 2.1472240647783707 -8.648794235152055 3.8843648239149258 -7.38668759650783 5.621505583051481 -6.124580957863606 5.621505583051481 -3.062290478931803 5.621505583051481 0 5.084699566856888 1.6521190386987306 4.5478935506622955 3.304238077397461 3.1425171548994255 4.3253037967740795 1.737140759136555 5.346369516150697 -3.3306690738754696e-16 5.346369516150697 -1.7371407591365557 5.346369516150697 -3.142517154899425 4.3253037967740795 -4.547893550662295 3.3042380773974616 -5.084699566856887 -1.4101714402330723 Z"></path></g><g transform="translate(52.13631112822554 759.5591066615324) rotate(0 123.46938775510202 3.0612244897959044)" stroke="none" fill="#1864ab"><path d="M -12.767192603377442 6.337458957438647 Q -12.767192603377442 6.337458957438647 -14.190040789534864 4.3790764384363685 -15.612888975692286 2.42069391943409 -14.190040789534864 4.3790764384363685 -12.767192603377442 6.337458957438647 -14.190040789534864 4.3790764384363685 -15.612888975692286 2.42069391943409 -15.612888975692286 -4.440892098500626e-16 -15.612888975692286 -2.420693919434091 -14.190040789534864 -4.3790764384363685 -12.767192603377442 -6.337458957438646 -11.745265211123051 -6.54204893542132 -10.723337818868663 -6.746638913403993 -5.937555573537551 -7.618749057060362 -1.151773328206441 -8.49085920071673 7.066019109631588 -9.3219517985811 15.283811547469616 -10.15304439644547 28.91499939304482 -10.096826708761043 42.54618723862002 -10.040609021076616 60.897695454478594 -9.333080179724625 79.24920367033717 -8.625551338372636 99.50684139247497 -8.535550533386601 119.76447911461278 -8.445549728400568 140.86812138949946 -8.49928887465976 161.97176366438615 -8.553028020918951 180.99349565837304 -8.381313167726512 200.01522765235995 -8.209598314534073 213.55510347982866 -7.2849039117162615 227.09497930729736 -6.36020950889845 236.69610530975672 -4.972092900925398 246.2972313122161 -3.5839762929523467 253.38847395611725 -1.212525734670563 260.47971660001843 1.1589248236112208 262.0211801795771 3.4181238250740758 263.56264375913565 5.677322826536931 263.48179013615487 8.411102771405814 263.4009365131741 11.144882716274697 261.728649023519 13.309032583372508 260.0563615338639 15.473182450470318 258.22685428050636 15.585214786868802 256.3973470271488 15.697247123267285 249.6310588387507 14.54930161988188 242.86477065035263 13.401356116496476 240.02285727692498 11.955120062825296 237.18094390349736 10.508884009154116 236.6805386796016 7.359651569828144 236.18013345570583 4.2104191305021725 238.43378520758137 1.954510416419636 240.6874369594569 -0.3013982976629004 243.83716871046374 0.1958543963514896 246.98690046147058 0.6931070903658796 248.4359804534334 3.5335714048571343 249.8850604453962 6.374035719348389 248.438824391725 9.215949092776018 246.99258833805382 12.057862466203648 243.84335589872785 12.558267690099417 240.69412345940188 13.058672913995185 238.43821474531933 10.805021162119653 236.1823060312368 8.55136941024412 236.67955872525118 5.4016376592372755 237.1768114192656 2.251905908230431 240.01727573375683 0.8028259162676279 242.85774004824808 -0.6462540756951753 249.785274922873 0.10610594716699306 256.7128097974979 0.8584659700291615 258.59626319875815 1.0086953968201917 260.47971660001843 1.1589248236112217 262.0211801795771 3.4181238250740758 263.56264375913565 5.67732282653693 263.48179013615487 8.411102771405814 263.4009365131741 11.144882716274697 261.728649023519 13.309032583372508 260.0563615338639 15.473182450470318 252.38962292166622 14.51003485145314 244.72288430946855 13.546887252435962 235.2067329778767 12.248470244206649 225.69058164628484 10.950053235977336 212.68991322587792 10.02625361320928 199.689244805471 9.102453990441223 180.83043064970462 8.827694063280406 161.97161649393826 8.552934136119589 140.86316232747302 8.496237618680452 119.75470816100778 8.439541101241314 99.15245935090815 8.340270150710818 78.55021054080851 8.240999200180324 60.440409264898655 7.549421402760173 42.3306079889888 6.8578436053400225 29.580845504244497 6.656950697321326 16.83108301950019 6.456057789302629 8.096625745461854 7.027029923581111 -0.637831528576486 7.598002057859592 -5.680584673722574 7.172320485631793 -10.723337818868663 6.746638913403993 -11.745265211123051 6.54204893542132 -12.767192603377442 6.337458957438646 -14.190040789534864 4.3790764384363685 -15.612888975692286 2.420693919434091 -15.612888975692286 4.440892098500626e-16 -15.612888975692286 -2.42069391943409 -14.190040789534864 -4.3790764384363685 -12.767192603377442 -6.337458957438647 -6.383596301688721 -6.337458957438647 0 -6.337458957438647 1.8625324560956344 -5.732285477580125 3.725064912191269 -5.127111997721602 4.876173275208192 -3.5427472583619406 6.027281638225116 -1.9583825190022788 6.027281638225116 3.3306690738754696e-16 6.027281638225116 1.9583825190022794 4.876173275208193 3.5427472583619406 3.72506491219127 5.1271119977216015 -4.521063845593086 5.732285477580124 Z"></path></g><g transform="translate(262.93401015228415 474.020304568528) rotate(0 260.5 46)"><text x="0" y="32" font-family="Virgil, Segoe UI Emoji" font-size="36px" fill="#1864ab" text-anchor="start" style="white-space: pre;" direction="ltr">and then configure your video</text><text x="0" y="78" font-family="Virgil, Segoe UI Emoji" font-size="36px" fill="#1864ab" text-anchor="start" style="white-space: pre;" direction="ltr">session with the </text></g><g transform="translate(596.505937151223 552.8668866263104) rotate(0 11.675126903553178 2.030456852791872)" stroke="none" fill="#1864ab"><path d="M -1.5657952256342975 -0.8796650035376375 Q -1.5657952256342975 -0.8796650035376375 -1.030338315288704 -1.9628924152871283 -0.4948814049431103 -3.046119827036619 -1.030338315288704 -1.9628924152871283 -1.5657952256342975 -0.8796650035376375 -1.030338315288704 -1.9628924152871283 -0.4948814049431103 -3.046119827036619 0.7970599634737331 -4.646428722536279 2.0890013318905765 -6.246737618035938 3.45532544259794 -7.562303828071849 4.821649553305304 -8.87787003810776 6.485710504971959 -10.30483580941182 8.149771456638613 -11.731801580715882 9.47391715504881 -12.839485747774699 10.798062853459005 -13.947169914833516 12.110042665679803 -15.133934190478126 13.422022477900601 -16.320698466122735 15.02336594917585 -17.119463944152894 16.6247094204511 -17.918229422183053 17.63058935953272 -17.588282873718807 18.636469298614344 -17.25833632525456 18.24662716352352 -17.69447773174669 17.8567850284327 -18.13061913823882 19.1124593948881 -17.11173900361402 20.368133761343493 -16.092858868989214 21.329846937424293 -15.09029999677277 22.291560113505092 -14.087741124556324 22.196472709479536 -13.87366109845355 22.10138530545398 -13.659581072350775 23.464947106362295 -12.784651626568671 24.828508907270614 -11.909722180786567 26.094542632216402 -10.657543527588727 27.360576357162195 -9.405364874390887 28.028161961259244 -8.559569930065479 28.695747565356292 -7.71377498574007 28.374690231025884 -7.6362769873834395 28.053632896695476 -7.558778989026808 28.702862752683814 -7.032905952609963 29.35209260867215 -6.5070329161931175 28.985565852307865 -6.701917056453091 28.619039095943574 -6.896801196713065 29.017125247217052 -6.06578638515854 29.41521139849053 -5.234771573604014 28.124836019015255 -5.704182862573439 26.834460639539977 -6.173594151542863 28.17999945656561 -7.37570083451747 29.52553827359125 -8.577807517492078 31.63392644653254 -9.38383248469681 33.74231461947383 -10.189857451901542 35.391440565220535 -10.686607584152114 37.04056651096724 -11.183357716402684 38.61317773966759 -11.055989664149187 40.18578896836794 -10.928621611895693 40.97516135120583 -9.127325802106544 41.764533734043724 -7.326029992317393 41.03920912878095 -4.791118482458743 40.31388452351818 -2.256206972600094 39.64414699169 -0.47648829783330715 38.97440945986182 1.3032303769334797 38.03703475421996 3.5009514988431816 37.09966004857811 5.698672620752883 36.35402716871456 6.939371280408249 35.60839428885101 8.180069940063614 33.67621884541716 8.223109460757343 31.74404340198331 8.266148981451071 31.373526162220628 7.739319822680199 31.00300892245795 7.2124906639093265 31.012916588784215 6.568492352078817 31.022824255110482 5.924494040248306 31.40937243573825 5.409312041779861 31.79592061636602 4.894130043311415 32.20562508467196 5.162765245940857 32.6153295529779 5.4314004485703 33.584613894777526 6.571142858639508 34.553898236577155 7.710885268708716 33.91280009010431 8.449934096892788 33.27170194363148 9.18898292507686 33.83416780405978 8.748361367724538 34.396633664488085 8.307739810372215 35.17184507130741 9.859800436068909 35.94705647812673 11.411861061765602 37.22256974929684 13.42351100156175 38.49808302046694 15.435160941357896 40.32968547389885 18.61856115250597 42.16128792733075 21.801961363654037 41.9718913617445 22.409804312025933 41.78249479615824 23.01764726039783 41.27198863515973 23.39807802745522 40.76148247416123 23.778508794512614 40.12486271978567 23.786215757605774 39.488242965410116 23.79392272069893 39.56168045341094 23.484656999901816 39.63511794141178 23.1753912791047 39.60758761375939 22.590506125769068 39.580057286107 22.005620972433434 38.359116469016016 23.127031204463155 37.138175651925025 24.248441436492875 35.04106826381258 24.46586814056765 32.94396087570014 24.683294844642425 30.28738362696007 24.25443819147787 27.630806378220004 23.825581538313315 25.148126786857873 22.81021256232301 22.665447195495737 21.794843586332703 20.598441671570832 21.18261048270068 18.531436147645923 20.570377379068663 16.345504619450807 21.58031582854811 14.159573091255691 22.590254278027558 12.234649288959746 24.037423506259906 10.309725486663801 25.48459273449225 8.210347944632883 26.571111302817613 6.110970402601965 27.65762987114298 4.630219529956945 27.669251699737288 3.149468657311925 27.680873528331595 2.314412114175959 26.545979133274297 1.4793555710399928 25.411084738217 0.7107709153163781 25.44109318111356 -0.057813740407236414 25.471101624010114 -0.00517120448142408 22.441695001491485 0.047471331444388254 19.412288378972857 0.8756850369419058 16.195316769759643 1.7038987424394234 12.978345160546432 4.476970913207774 10.76754728820762 7.250043083976125 8.55674941586881 7.608314151351641 9.0496393014581 7.966585218727155 9.542529187047391 7.9667191950732885 10.151871930571062 7.966853171419422 10.761214674094733 7.60879888232564 11.254262058324851 7.250744593231858 11.747309442554968 7.10582283887573 11.86301171106836 6.960901084519601 11.97871397958175 5.7342008259195625 12.267226428161015 4.507500567319524 12.55573887674028 1.3040738521775832 12.323941476150626 -1.8993528629643577 12.092144075560974 -5.305151662236814 11.567337521396903 -8.71095046150927 11.042530967232832 -11.992704622880497 9.710740856411263 -15.274458784251724 8.378950745589696 -16.90017419398135 6.439172427545206 -18.525889603710972 4.499394109500715 -18.037737602693973 4.0813947239663655 -17.549585601676974 3.663395338432017 -16.90896846273168 3.612155278971296 -16.26835132378638 3.5609152195105747 -15.719963020214177 3.8960064472519114 -15.171574716641976 4.231097674993248 -14.54963712188566 3.7726586790010184 -13.927699527129342 3.3142196830087887 -11.485993955091725 1.7651790413643504 -9.04428838305411 0.216138399719912 -6.914081447568628 -0.3294598150226715 -4.7838745120831465 -0.875058029765255 -3.2722694385876947 -0.4966232173194294 -1.7606643650922424 -0.11818840487360371 -1.124816423952233 0.9763992131289688 -0.4889684828122235 2.0709868311315414 -1.2539669098007238 -0.024067044371496538 -2.018965336789224 -2.1191209198745344 -1.9150385089747595 -7.402518281513838 -1.8111116811602948 -12.685915643153141 -2.393176250149881 -17.73492942370636 -2.975240819139467 -22.78394320425958 -2.801402163338862 -23.366963228722184 -2.6275635075382575 -23.949983253184786 -2.144234508545955 -24.319476562877988 -1.6609055095536527 -24.688969872571192 -1.0527014172362485 -24.70380258180788 -0.4444973249188445 -24.71863529104457 -0.14724117795235658 -24.25006761035508 0.15001496901413136 -23.781499929665596 0.8000911224924476 -22.479123016576807 1.450167275970764 -21.17674610348802 1.391638893058895 -21.30140655400939 1.333110510147026 -21.426067004530758 3.8786910852292014 -20.685886881174095 6.424271660311377 -19.945706757817433 8.576441901243923 -19.255914785090678 10.72861214217647 -18.566122812363922 13.454662953897497 -17.88152340312829 16.180713765618524 -17.19692399389266 16.69259199490928 -16.677206423320577 17.20447022420003 -16.157488852748493 17.084884351478642 -15.437888342862173 16.96529847875726 -14.718287832975854 16.31283862473019 -14.392064269041292 15.660378770703126 -14.065840705106732 15.012952083604496 -14.401942415331 14.365525396505864 -14.738044125555268 14.256889533298633 -15.459378946570034 14.1482536700914 -16.180713767584802 14.667971240663483 -16.692591996875557 15.187688811235567 -17.204470226166308 15.907289321121887 -17.08488435344492 16.626889831008206 -16.965298480723536 16.95311339494277 -16.312838626696472 17.27933695887733 -15.660378772669405 16.94323524865306 -15.012952085570774 16.607133538428794 -14.365525398472142 15.885798717414028 -14.256889535264909 15.164463896399262 -14.148253672057676 12.315882169555962 -14.465269895548307 9.467300442712661 -14.782286119038938 7.308483605121962 -15.455700358602844 5.149666767531262 -16.129114598166748 3.0816325341291226 -16.799741198467704 1.0135983007269829 -17.47036779876866 0.12967571105884823 -18.520205278922383 -0.7542468786092864 -19.57004275907611 -1.6185459949399958 -20.849123634644936 -2.4828451112707053 -22.128204510213763 -2.729042965205086 -22.45607385723667 -2.9752408191394664 -22.78394320425958 -2.801402163338862 -23.366963228722184 -2.627563507538258 -23.949983253184786 -2.1442345085459555 -24.319476562877988 -1.6609055095536531 -24.688969872571192 -1.0527014172362485 -24.703802581807878 -0.4444973249188442 -24.718635291044567 0.4431065577608492 -23.26319104372409 1.3307104404405425 -21.80774679640361 1.8086073647343899 -17.212345503308683 2.286504289028237 -12.616944210213754 2.26377542204578 -7.3420766991035595 2.2410465550633227 -2.067209187993366 1.4125963514250799 -1.5614837963644004 0.5841461477868372 -1.055758404735435 0.03648614990275223 0.42302373067911425 -0.5111738479813327 1.9018058660936634 -2.0614222702047447 2.503740439410601 -3.6116706924281567 3.1056750127275383 -5.458327918051622 3.493822292564343 -7.304985143675087 3.8819695724011476 -9.381499532014079 4.90278477830012 -11.45801392035307 5.923599984199093 -13.411613667518816 6.649147621668366 -15.365213414684563 7.3746952591376385 -16.66819555924388 6.332089235547169 -17.971177703803196 5.2894832119567 -18.248533653757086 4.894438660728707 -18.525889603710972 4.499394109500715 -18.037737602693973 4.0813947239663655 -17.549585601676974 3.663395338432017 -16.90896846273168 3.612155278971296 -16.26835132378638 3.5609152195105747 -15.719963020214177 3.896006447251912 -15.171574716641976 4.231097674993249 -14.27132076665477 4.523030218598938 -13.371066816667563 4.814962762204627 -10.712070814977439 5.913226432711559 -8.053074813287315 7.011490103218492 -4.754096164589731 7.548753359640925 -1.4551175158921463 8.086016616063358 1.587966325472486 8.313996737681183 4.6310501668371185 8.54197685929901 4.622666134744758 9.325537154986264 4.614282102652397 10.109097450673518 5.541147118327304 9.587893107914361 6.468012134002212 9.066688765155206 6.859027608989169 8.811719090512007 7.250043083976125 8.55674941586881 7.608314151351641 9.0496393014581 7.966585218727155 9.542529187047391 7.9667191950732885 10.151871930571062 7.966853171419422 10.761214674094733 7.60879888232564 11.254262058324851 7.250744593231858 11.747309442554968 6.23154862559641 12.942903905281215 5.212352657960962 14.138498368007461 4.486241821253123 16.751844101136143 3.760130984545284 19.365189834264825 3.828388606130968 22.37583931451823 3.8966462277166514 25.386488794771633 3.19151334864278 26.891255327769706 2.4863804695689087 28.396021860767775 2.3553366572489143 27.162893441149777 2.2242928449289203 25.929765021531782 3.362952318210426 25.049847866527475 4.501611791491931 24.16993071152317 6.2417205715477895 23.30684113637278 7.981829351603649 22.44375156122239 10.159664680627937 20.8165072212195 12.337500009652226 19.18926288121661 14.202519367404612 18.178783629992232 16.067538725156997 17.168304378767857 18.189192373567096 16.930478384219008 20.3108460219772 16.692652389670158 22.29299910234151 17.469194594412272 24.275152182705824 18.245736799154386 26.278420475895075 19.14876540135944 28.281688769084322 20.051794003564495 31.32848840890616 20.580471292045164 34.375288048727995 21.109148580525833 36.566661445844176 20.634745146061498 38.758034842960356 20.160341711597166 40.146406655127585 20.727638446005564 41.534778467294814 21.294935180413965 41.84803319731278 21.548448272034 42.16128792733075 21.801961363654037 41.9718913617445 22.409804312025933 41.78249479615824 23.01764726039783 41.27198863515973 23.39807802745522 40.76148247416123 23.778508794512614 40.12486271978567 23.786215757605774 39.488242965410116 23.79392272069893 38.22804327093253 22.42425138319152 36.96784357645494 21.054580045684112 35.938003573967414 19.394874602592203 34.90816357147989 17.73516915950029 33.50582519964054 15.500542149428487 32.1034868278012 13.265915139356682 31.166243863601434 10.997240821218126 30.22900089940167 8.72856650307957 31.219766236836243 7.384004986970892 32.21053157427082 6.0394434708622144 32.13364754511262 6.808842642743391 32.05676351595442 7.578241814624568 31.900403458968867 7.922195398037818 31.74404340198331 8.26614898145107 31.373526162220628 7.739319822680198 31.00300892245795 7.2124906639093265 31.012916588784215 6.568492352078817 31.022824255110482 5.924494040248307 31.40937243573825 5.409312041779861 31.79592061636602 4.894130043311416 32.43143528659447 5.718040793300956 33.066949956822924 6.541951543290494 33.299489910508356 5.467756214681446 33.53202986419378 4.393560886072397 34.421647499829305 2.062920730403224 35.31126513546483 -0.26771942526594783 35.98458663380408 -2.1405276749500857 36.657908132143326 -4.013335924634224 37.540544062226715 -5.655536050922684 38.42317999231011 -7.297736177211144 37.57326232593839 -7.142142482009147 36.72334465956666 -6.986548786807149 34.91164108006522 -6.241963990409711 33.09993750056378 -5.4973791940122725 31.238899436939874 -4.902039961666782 29.377861373315966 -4.3067007293212916 29.6980963059742 -4.727641426346423 30.018331238632435 -5.148582123371555 29.262017784725842 -4.652145088214013 28.50570433081925 -4.15570805305647 27.489608000587378 -4.790880872566603 26.473511670355506 -5.426053692076737 26.746027584754263 -5.0309874963641095 27.01854349915302 -4.635921300651482 26.069078531320905 -5.650547401112646 25.119613563488794 -6.665173501573809 23.568126275619694 -8.150716987209542 22.016638987750593 -9.636260472845272 21.098464589409105 -10.449899906665078 20.18029019106762 -11.263539340484881 19.08144072543346 -12.12318358737441 17.982591259799296 -12.982827834263938 17.126149134477195 -14.453578321697297 16.2697070091551 -15.924328809130657 16.592247308292897 -15.648867447431952 16.9147876074307 -15.373406085733247 17.15414486301927 -15.207419075036476 17.393502118607838 -15.041432064339707 16.559222131739418 -14.331177969842901 15.724942144871 -13.620923875346095 14.449294874694303 -12.378930558832568 13.173647604517605 -11.136937242319043 11.865555977923313 -10.008210057655827 10.55746435132902 -8.87948287299261 8.986762898650584 -7.531452083324613 7.416061445972148 -6.183421293656617 6.0723124907780655 -4.899207601482704 4.728563535583982 -3.614993909308792 3.869188552606103 -2.809066316397679 3.009813569628224 -2.0031387234865656 2.4743871544602625 -1.3770095524894543 1.9389607392923012 -0.7508803814923433 1.8456693608778 -0.34324403523484803 1.7523779824632992 0.06439231102264714 1.566116350032225 0.5732543597405056 1.3798547176011506 1.082116408458364 0.9300642838767005 1.384312613052657 0.4802738501522503 1.6865088176469503 -0.061240726997392914 1.666610499233875 -0.6027553041470362 1.6467121808207998 -1.0291538616542355 1.3123198207151834 -1.4555524191614346 0.9779274606095668 -1.510673822397866 0.04913122853596463 Z"></path></g><g transform="translate(600.0592366436086 550.8364297735185) rotate(0 11.675126903553348 9.89847715736039)" stroke="none" fill="#1864ab"><path d="M -0.8828296962658152 -2.557333297159257 Q -0.8828296962658152 -2.557333297159257 -0.44363293094403317 -2.8663719632216464 -0.004436165622251131 -3.175410629284036 -0.44363293094403317 -2.8663719632216464 -0.8828296962658152 -2.557333297159257 -0.44363293094403317 -2.8663719632216464 -0.004436165622251131 -3.175410629284036 0.5325298516971873 -3.1672747805367716 1.0694958690166256 -3.1591389317895073 1.4991283705213594 -2.8369361859267164 1.9287608720260931 -2.514733440063925 1.8538481823613295 -2.1742936338790857 1.778935492696566 -1.8338538276942469 1.3522721922371397 -0.6590584948718569 0.9256088917777132 0.5157368379505332 0.1560436834968364 1.3475986853328674 -0.6135215247840404 2.1794605327152015 -0.9516081063653588 3.9887830117619636 -1.289694687946677 5.798105490808726 -0.6418214934835957 8.32264021830252 0.0060517009794856524 10.847174945796317 0.8090311879680675 12.478499069968748 1.6120106749566494 14.109823194141178 2.5690593713763237 15.35570308319749 3.526108067795998 16.6015829722538 4.669589968035906 17.635021349972536 5.813071868275813 18.66845972769127 7.590824786294605 19.007769771614825 9.368577704313397 19.34707981553838 11.477985255324555 19.295313257378826 13.58739280633571 19.243546699219273 15.568438929100429 18.73992699726302 17.549485051865148 18.236307295306762 18.557713677681686 17.003624533435453 19.565942303498225 15.770941771564143 20.662937058767845 14.439379013016655 21.75993181403747 13.107816254469167 23.057366137117242 11.37100548139351 24.354800460197012 9.634194708317851 25.590828966886907 8.587998610317992 26.8268574735768 7.541802512318134 27.513601390722215 7.852702690177681 28.20034530786763 8.163602868037227 28.3524797270247 8.901932907272435 28.50461414618177 9.640262946507644 27.996714964929573 10.197321785422055 27.488815783677374 10.754380624336466 26.739610067737377 10.670912525447376 25.99040435179738 10.587444426558285 25.61755939152407 9.93226295251608 25.244714431250756 9.277081478473875 25.5556146091103 8.590337561328461 25.866514786969848 7.903593644183049 26.604844826205056 7.751459225025977 27.343174865440265 7.599324805868906 27.900233704354676 8.107223987121102 28.457292543269087 8.6151231683733 28.37382444438 9.364328884313299 28.290356345490906 10.113534600253297 27.635174871448704 10.486379560526608 26.9799933974065 10.85922452079992 26.703136923424623 12.075422501695902 26.42628044944275 13.291620482591885 24.8272356572174 15.364534555948927 23.22819086499205 17.43744862930597 22.000555176077345 18.862255734881703 20.77291948716264 20.287062840457438 19.321016016320172 21.28549076546649 17.869112545477705 22.28391869047555 16.18426860803503 22.711027965909818 14.499424670592356 23.138137241344086 12.829472365489334 23.208688326386635 11.159520060386313 23.279239411429185 8.754140761477426 22.989335403812454 6.348761462568538 22.699431396195724 4.457710376600337 21.929769174598302 2.5666592906321366 21.16010695300088 1.3936610857478247 19.98117362033061 0.2206628808635127 18.80224028766034 -0.8767868141189863 17.31678877561177 -1.9742365091014853 15.831337263563196 -2.8309419375740985 14.049606096691683 -3.687647366046712 12.267874929820172 -4.416197878152477 10.06302616981838 -5.144748390258243 7.858177409816589 -5.133966560719052 5.776760524033534 -5.12318473117986 3.6953436382504803 -4.077579340556271 1.5498576394323267 -3.0319739499326834 -0.5956283593858269 -2.144179328360349 -1.468357959586004 -1.2563847067880145 -2.341087559786181 -1.0696072015269147 -2.449210428472719 -0.882829696265815 -2.557333297159257 -0.4436329309440331 -2.8663719632216464 -0.0044361656222512424 -3.175410629284036 0.5325298516971873 -3.1672747805367716 1.0694958690166256 -3.1591389317895073 1.4991283705213594 -2.836936185926716 1.9287608720260931 -2.5147334400639245 1.6672780780860237 -1.2467167557581291 1.4057952841459542 0.02129992854766627 1.2652938878784938 0.43241883424249955 1.1247924916110335 0.8435377399373328 0.7694748445912061 1.0935552727007702 0.4141571975713788 1.3435728054642078 -0.02025743584187925 1.3369907655640068 -0.4546720692551373 1.3304087256638057 -0.802252064308287 1.069741228626535 -1.1498320593614366 0.8090737315892647 -1.016330877813626 -0.8741297827849962 Z"></path></g><g transform="translate(617.8257341055375 543.2222165755489) rotate(0 1.5228426395939323 6.091370558375672)" stroke="none" fill="#1864ab"><path d="M -2.2556570806781933 -1.1253336820337583 Q -2.2556570806781933 -1.1253336820337583 -4.228298592027112 -2.3284218220393926 -6.200940103376032 -3.5315099620450265 -4.228298592027112 -2.3284218220393926 -2.2556570806781933 -1.1253336820337583 -4.228298592027112 -2.3284218220393926 -6.200940103376032 -3.5315099620450265 -6.547484442494613 -4.009588290062149 -6.894028781613194 -4.487666618079272 -6.893381650615453 -5.0781337618868285 -6.892734519617712 -5.668600905694385 -6.545143100549613 -6.14591848559796 -6.197551681481512 -6.623236065501536 -5.34834170239318 -6.512235818675119 -4.499131723304848 -6.401235571848703 -1.4027470663798582 -5.666217608204244 1.693637590545132 -4.931199644559784 3.7871097124432818 -3.0588897212972186 5.880581834341432 -1.1865797980346535 7.363451275445533 1.556869795941605 8.846320716549634 4.300319389917863 9.331876029987146 7.0535763587476685 9.817431343424657 9.806833327577474 9.936322806047261 11.897307172630839 10.055214268669864 13.987781017684203 9.358261849388324 15.646713785268918 8.661309430106785 17.305646552853634 8.321554562309217 17.924681555297404 7.9817996945116505 18.543716557741174 7.281286956735714 18.632708740860615 6.580774218959778 18.721700923980052 6.097026974141905 18.207282507150115 5.613279729324033 17.692864090320178 5.745113474417845 16.99913678936018 5.876947219511658 16.305409488400183 6.515674326570787 16.004302551996226 7.154401433629916 15.703195615592268 7.773436436073687 16.042950483389834 8.392471438517457 16.3827053511874 8.481463621636895 17.08321808896334 8.570455804756332 17.783730826739276 8.056037387926397 18.26747807155715 7.541618971096461 18.75122531637502 6.847891670136464 18.619391571281206 6.154164369176467 18.487557826187395 5.853057432772508 17.848830719128266 5.5519504963685495 17.21010361206914 5.692551428792412 15.793464011900799 5.833152361216275 14.376824411732459 5.680709535029959 12.332078452344447 5.528266708843644 10.287332492956434 5.266254831169162 8.189553925353948 5.00424295349468 6.091775357751463 3.94738069134854 3.9527069652372404 2.8905184292024 1.8136385727230178 1.4513138273507695 0.34185319815922377 0.012109225499138954 -1.1299321764045702 -2.410172590711565 -2.1082917681748015 -4.8324544069222695 -3.0866513599450323 -5.51669725514915 -3.309080660995029 -6.200940103376032 -3.5315099620450265 -6.547484442494613 -4.009588290062149 -6.894028781613194 -4.487666618079271 -6.893381650615453 -5.0781337618868285 -6.892734519617712 -5.668600905694385 -6.545143100549613 -6.14591848559796 -6.197551681481512 -6.623236065501536 -4.226255753285909 -6.15372101090365 -2.2549598250903062 -5.684205956305766 -0.665895027028377 -3.736844132059825 0.9231697710335521 -1.7894823078138846 1.2562915984447125 -1.060778310351974 1.5894134258558728 -0.3320743128900632 1.5352321411214573 0.16675284805011514 1.4810508563870421 0.6655800089902935 1.1440140276162714 1.037292699329556 0.8069771988455005 1.4090053896688184 0.31582143916833016 1.5116219957472317 -0.17533432050884007 1.614238601825645 -0.6330042046660055 1.408563067931414 -1.090674088823171 1.2028875340371832 -1.6731655847506821 0.03877692600171245 Z"></path></g><g transform="translate(610.211520907568 538.1460744435693) rotate(0 7.8680203045685175 -5.583756345177676)" stroke="none" fill="#1864ab"><path d="M -1.0299847283697718 -0.991641589536394 Q -1.0299847283697718 -0.991641589536394 0.31726878269755254 -2.183917879674247 1.664522293764877 -3.3761941698121 0.31726878269755254 -2.183917879674247 -1.0299847283697718 -0.991641589536394 0.31726878269755254 -2.183917879674247 1.664522293764877 -3.3761941698121 3.522828877093118 -4.92277999951479 5.381135460421359 -6.46936582921748 7.409137903243442 -8.0305275605397 9.437140346065524 -9.59168929186192 12.449185592229597 -11.29433035612352 15.46123083839367 -12.996971420385119 16.025137316160357 -12.903038123687168 16.589043793927047 -12.809104826989216 16.990041111180147 -12.401655282319457 17.39103842843325 -11.994205737649697 17.475959239379605 -11.42887182237131 17.56088005032596 -10.86353790709292 17.176379111457305 -10.761718567139315 16.79187817258865 -10.659899227185711 16.482717415200863 -10.053136326818215 16.173556657813076 -9.446373426450718 15.500955026079426 -9.339843448697046 14.828353394345775 -9.233313470943372 14.346823512131776 -9.714842871609562 13.865293629917776 -10.196372272275752 13.971822935044386 -10.868974010543063 14.078352240170997 -11.541575748810374 14.68511483136577 -11.8507371129838 15.29187742256054 -12.159898477157226 15.898640322928038 -11.85073771976944 16.505403223295534 -11.541576962381653 16.611933201049204 -10.868975330648002 16.718463178802878 -10.196373698914352 16.236933778136688 -9.714843816700352 15.755404377470501 -9.233313934486354 15.08280263920319 -9.339843239612964 14.410200900935878 -9.446372544739573 14.101039536762453 -10.053135135934344 13.791878172589026 -10.659897727129113 14.626554505491349 -11.828434573757116 15.46123083839367 -12.996971420385119 16.025137316160357 -12.903038123687168 16.589043793927047 -12.809104826989216 16.990041111180147 -12.401655282319457 17.39103842843325 -11.994205737649697 17.475959239379605 -11.42887182237131 17.56088005032596 -10.86353790709292 16.154129423408396 -9.553266016700164 14.747378796490832 -8.242994126307408 13.195232153903385 -7.440500819433413 11.643085511315938 -6.638007512559417 9.677897893120686 -5.094517060306872 7.712710274925437 -3.551026608054327 5.2997300263950695 -2.272596415281235 2.8867497778647033 -0.9941662225081427 2.4225585154909703 -0.4977142694970085 1.9583672531172376 -0.0012623164858743263 1.7717308065652948 0.5744079189898035 1.585094360013352 1.1500781544654812 1.09573182838674 1.5061030072976278 0.6063692967601283 1.8621278601297742 0.001200534319517499 1.862517937376189 -0.6039682281210933 1.862908014622604 -1.0937893230531 1.5075143200333947 -1.5836104179851067 1.1521206254441854 -1.3067975731774393 0.08023951795389567 Z"></path></g><g transform="translate(625.4399473035071 527.4861759664119) rotate(0 -0.5076142131979395 9.89847715736039)" stroke="none" fill="#1864ab"><path d="M 1.9801428542260413 0.15232234400456596 Q 1.9801428542260413 0.15232234400456596 1.7462896235922591 0.7197262380368392 1.512436392958477 1.2871301320691124 1.7462896235922591 0.7197262380368392 1.9801428542260413 0.15232234400456596 1.7462896235922591 0.7197262380368392 1.512436392958477 1.2871301320691124 0.9897335141807717 1.6087140448482555 0.46703063540306644 1.9302979576273986 -0.1448671578428946 1.8832277647069608 -0.7567649510888557 1.836157571786523 -1.224133499424171 1.4384124870050972 -1.6915020477594862 1.040667402223671 -1.8358224509927639 0.4441725291095527 -1.9801428542260413 -0.1523223440045657 -1.7462896235922591 -0.719726238036839 -1.5124363929584772 -1.2871301320691122 -0.9897335141807719 -1.6087140448482553 -0.46703063540306666 -1.9302979576273986 0.14486715784289422 -1.883227764706961 0.7567649510888551 -1.8361575717865233 1.2241334994241702 -1.438412487005098 1.691502047759485 -1.0406674022236728 1.8358224509927632 -0.4441725291095534 Z"></path></g><g transform="translate(626.962789943101 529.5166328192038) rotate(0 -0.7614213197969093 7.106598984771608)" stroke="none" fill="#1864ab"><path d="M -0.5489685973077283 -3.2500716496996267 Q -0.5489685973077283 -3.2500716496996267 -0.08107150488855172 -3.438770142897667 0.38682558753062485 -3.627468636095707 -0.08107150488855172 -3.438770142897667 -0.5489685973077283 -3.2500716496996267 -0.08107150488855172 -3.438770142897667 0.38682558753062485 -3.627468636095707 0.8762764783479838 -3.505105913391347 1.3657273691653429 -3.3827431906869863 1.6897784539125666 -2.9960576531973127 2.0138295386597904 -2.6093721157076395 2.09861539519699 -2.3036836192570784 2.1834012517341894 -1.9979951228065171 2.399661570464265 -0.14997475956580897 2.6159218891943414 1.6980456036748992 2.2716476539653954 5.3303754621686785 1.9273734187364495 8.962705320662458 0.4747926713618139 12.651518063518948 -0.9777880760128217 16.340330806375437 -1.325813762350333 16.925668070540524 -1.6738394486878443 17.511005334705615 -2.3519516086864947 17.573499251473027 -3.030063768685145 17.63599316824044 -3.4792067364424355 17.124121909343106 -3.928349704199726 16.612250650445773 -3.7782367694382932 15.94801597957389 -3.6281238346768605 15.283781308702007 -3.0025125284573457 15.014797880399668 -2.3769012222378314 14.745814452097328 -1.7915639580727416 15.093840138434839 -1.206226693907652 15.44186582477235 -1.1437327771402401 16.119977984771 -1.0812388603728285 16.798090144769652 -1.5931101192701616 17.247233112526942 -2.1049813781674946 17.69637608028423 -2.769216049039377 17.5462631455228 -3.43345071991126 17.396150210761366 -3.7024341482136007 16.77053890454185 -3.9714175765159414 16.14492759832234 -2.8388661571628964 12.435225577966415 -1.7063147378098518 8.72552355761049 -1.3055146355297145 5.450768665459204 -0.9047145332495772 2.1760137733079175 -0.7570387355508355 -0.06170669747305202 -0.6093629378520937 -2.2994271682540215 -0.5791657675799109 -2.774749408976824 -0.5489685973077281 -3.2500716496996267 -0.0810715048885517 -3.438770142897667 0.3868255875306247 -3.627468636095707 0.8762764783479837 -3.505105913391347 1.3657273691653429 -3.3827431906869867 1.6897784539125669 -2.9960576531973127 2.013829538659791 -2.609372115707639 1.6476143033217752 -1.1445111743558227 1.2813990679837595 0.3203497669959938 1.064887910971632 0.6663528235509908 0.8483767539595048 1.0123558801059878 0.46984005457376554 1.1650161679161477 0.09130335518802629 1.3176764557263076 -0.30467073339517414 1.218682933580491 -0.7006448219783745 1.1196894114346743 -0.9628076565845148 0.8068542401265174 -1.2249704911906552 0.49401906881836055 -0.8869695442491917 -1.378026290440633 Z"></path></g><g transform="translate(663 531) rotate(0 50.5 23)"><text x="0" y="32" font-family="Virgil, Segoe UI Emoji" font-size="36px" fill="#1864ab" text-anchor="start" style="white-space: pre;" direction="ltr">MENU</text></g></svg>
